[quote][img]http://www.postimg.com/image/46000/photo-45641.jpg[/img]
[img]http://leetleech.org/images/80466062096578101552.png[/img]

General

Complete name                    : H:\Rio [2011]-480p-Hindi-BRrip-[~HFR~]
Format                           : Matroska
Format version                   : Version 2
File size                        : 290 MiB
Duration                         : 1h 32mn
Overall bit rate                 : 440 Kbps

Video
ID                               : 1
Format                           : AVC
Format/Info                      : Advanced Video Codec
Format profile                   : Main@L4.1
Format settings, CABAC           : Yes
Format settings, ReFrames        : 16 frames
Muxing mode                      : Header stripping
Codec ID                         : V_MPEG4/ISO/AVC
Duration                         : 1h 32mn
Bit rate                         : 360 Kbps
Width                            : 720 pixels
Height                           : 304 pixels
Display aspect ratio             : 2.35:1
Frame rate                       : 25.000 fps
Original frame rate              : 23.976 fps
Color space                      : YUV
Chroma subsampling               : 4:2:0
Bit depth                        : 8 bits
Scan type                        : Progressive
Bits/(Pixel*Frame)               : 0.066
Stream size                      : 242 MiB


Audio
ID                               : 2
Format                           : MPEG Audio
Format version                   : Version 1
Format profile                   : Layer 3
Mode                             : Joint stereo
Mode extension                   : MS Stereo
Muxing mode                      : Header stripping
Codec ID                         : A_MPEG/L3
Codec ID/Hint                    : MP3
Duration                         : 1h 32mn
Bit rate mode                    : Constant
Bit rate                         : 64.0 Kbps
Channel(s)                       : 2 channels
Sampling rate                    : 44.1 KHz
Compression mode                 : Lossy
Stream size                      : 42.1 MiB 

[img]http://leetleech.org/images/37571685308686837845.png[/img]
In Rio de Janeiro, the macaw baby Blu is captured by dealers and smuggled to the United States of America. While driving through Moose Lake, Minnesotta, the truck that is transporting Blu has a minor accident that drops the box where he is trapped on the road. The girl Linda finds the bird and raises him with love. Fifteen years later, Blu is a domesticated and intelligent bird that does not fly and lives a comfortable life with the bookshop owner Linda. Out of the blue, the clumsy Brazilian ornithologist Tulio visits Linda and explains that Blu is the last male of his species alive and he has a female called Jewel in Rio de Janeiro. He invites Linda to travel with Blu to Rio de Janeiro to mate with Jewel and save their species. Linda travels with Blu and Tulio to Rio de Janeiro and they leave Blue and Jewel in a large cage in the institute where Tulio works. While they are having dinner... 

[img]http://leetleech.org/images/47672446756309998169.png[/img]
[url]http://www.imdb.com/title/tt1436562/[/url]

[img]http://leetleech.org/images/32213758148792891108.png[/img]
Director:
Carlos Saldanha
Writers:
Carlos Saldanha (story), Earl Richey Jones (story), and 5 more credits »
Stars:
Jesse Eisenberg, Anne Hathaway and George Lopez

[img]http://leetleech.org/images/73962242004612563100.jpg[/img]
Budget:
$90,000,000 (estimated)
Opening Weekend:
£1,515,853 (UK) (10 April 2011) (522 Screens)
Gross:
$143,558,181 (USA) (21 August 2011)

[img]http://leetleech.org/images/30968320715484247309.png[/img]
[img]http://www.postimg.com/image/46000/photo-45642.jpg[/img]
[img]http://www.postimg.com/image/46000/photo-45643.jpg[/img]
[img]http://www.postimg.com/image/46000/photo-45644.jpg[/img]
[img]http://www.postimg.com/image/46000/photo-45645.jpg[/img]
[img]http://www.postimg.com/image/46000/photo-45646.jpg[/img]

[img]http://leetleech.org/images/85565807790042668303.gif[/img]
[img]http://leetleech.org/images/18843140288135383398.gif[/img]

[img]http://leetleech.org/images/03321443499000046493.gif[/img]